<svg xmlns="http://www.w3.org/2000/svg" viewBox="0 0 900 650" role="img" aria-labelledby="title desc">
  <title id="title">IT solutions workspace</title>
  <desc id="desc">Illustration of a laptop, cloud systems, code panels, and connected technology nodes.</desc>
  <defs>
    <linearGradient id="bg" x1="0" x2="1" y1="0" y2="1">
      <stop offset="0" stop-color="#1d4ed8"/>
      <stop offset="0.55" stop-color="#7c3aed"/>
      <stop offset="1" stop-color="#0f172a"/>
    </linearGradient>
    <linearGradient id="screen" x1="0" x2="1">
      <stop offset="0" stop-color="#0f172a"/>
      <stop offset="1" stop-color="#1e293b"/>
    </linearGradient>
  </defs>
  <rect width="900" height="650" rx="38" fill="url(#bg)"/>
  <circle cx="734" cy="122" r="86" fill="#f59e0b" opacity=".18"/>
  <circle cx="166" cy="548" r="112" fill="#22c55e" opacity=".14"/>
  <path d="M130 468h640l-58 66H188z" fill="#e2e8f0"/>
  <rect x="188" y="138" width="524" height="334" rx="26" fill="#cbd5e1"/>
  <rect x="216" y="166" width="468" height="278" rx="16" fill="url(#screen)"/>
  <rect x="260" y="214" width="150" height="18" rx="9" fill="#38bdf8"/>
  <rect x="260" y="252" width="284" height="14" rx="7" fill="#94a3b8"/>
  <rect x="260" y="282" width="234" height="14" rx="7" fill="#64748b"/>
  <rect x="260" y="332" width="98" height="16" rx="8" fill="#22c55e"/>
  <rect x="376" y="332" width="136" height="16" rx="8" fill="#f59e0b"/>
  <rect x="530" y="332" width="92" height="16" rx="8" fill="#a78bfa"/>
  <path d="M602 216c-48-66-150-18-132 58-60-6-78 78-12 94h168c80-16 52-136-24-106z" fill="#2563eb" opacity=".9"/>
  <g fill="#fff">
    <circle cx="330" cy="394" r="12"/>
    <circle cx="450" cy="394" r="12"/>
    <circle cx="570" cy="394" r="12"/>
  </g>
  <g stroke="#93c5fd" stroke-width="6" stroke-linecap="round" opacity=".8">
    <path d="M342 394h96"/>
    <path d="M462 394h96"/>
    <path d="M148 180h78"/>
    <path d="M680 520h86"/>
  </g>
  <rect x="104" y="140" width="128" height="78" rx="16" fill="#ffffff" opacity=".9"/>
  <rect x="668" y="486" width="132" height="82" rx="18" fill="#ffffff" opacity=".9"/>
  <circle cx="166" cy="179" r="20" fill="#2563eb"/>
  <circle cx="734" cy="527" r="22" fill="#7c3aed"/>
</svg>
